<svg xmlns="http://www.w3.org/2000/svg" viewBox="0 0 240 110" width="100%" height="100%">
  <defs>
    <linearGradient id="cosoBadgeGrad" x1="0%" y1="0%" x2="100%" y2="100%">
      <stop offset="0%" stop-color="#2D1B00"/>
      <stop offset="100%" stop-color="#190F00"/>
    </linearGradient>
    <filter id="cosoDrop" x="-10%" y="-10%" width="120%" height="120%">
      <feDropShadow dx="0" dy="2" stdDeviation="2" flood-opacity="0.15"/>
    </filter>
  </defs>
  
  <!-- Outer Badge Container -->
  <rect x="2" y="2" width="236" height="106" rx="8" fill="url(#cosoBadgeGrad)" filter="url(#cosoDrop)" stroke="#4A2F08" stroke-width="1.2"/>
  
  <!-- Authentic 3D Isometric COSO Cube on left -->
  <g transform="translate(18, 18)">
    <!-- Top Face (Organizational Structure) -->
    <polygon points="36,4 66,18 36,32 6,18" fill="#3B82F6" stroke="#FFFFFF" stroke-width="0.8"/>
    <!-- Top Face Grid lines -->
    <line x1="21" y1="11" x2="51" y2="25" stroke="#FFFFFF" stroke-width="0.6" opacity="0.8"/>
    <line x1="51" y1="11" x2="21" y2="25" stroke="#FFFFFF" stroke-width="0.6" opacity="0.8"/>

    <!-- Right Face (Objectives: Operations, Reporting, Compliance) -->
    <polygon points="36,32 66,18 66,32 36,46" fill="#1E40AF" stroke="#FFFFFF" stroke-width="0.6"/>
    <polygon points="36,46 66,32 66,46 36,60" fill="#1D4ED8" stroke="#FFFFFF" stroke-width="0.6"/>
    <polygon points="36,60 66,46 66,60 36,74" fill="#2563EB" stroke="#FFFFFF" stroke-width="0.6"/>
    <polygon points="36,74 66,60 66,74 36,88" fill="#3B82F6" stroke="#FFFFFF" stroke-width="0.6"/>

    <!-- Left Front Face: 5 Components Layers (Classic COSO Cube) -->
    <!-- 1. Control Environment (Top Red/Orange) -->
    <polygon points="6,18 36,32 36,44 6,30" fill="#EF4444" stroke="#FFFFFF" stroke-width="0.6"/>
    <!-- 2. Risk Assessment (Orange) -->
    <polygon points="6,30 36,44 36,56 6,42" fill="#F97316" stroke="#FFFFFF" stroke-width="0.6"/>
    <!-- 3. Control Activities (Amber) -->
    <polygon points="6,42 36,56 36,68 6,54" fill="#F59E0B" stroke="#FFFFFF" stroke-width="0.6"/>
    <!-- 4. Information & Communication (Green/Teal) -->
    <polygon points="6,54 36,68 36,78 6,64" fill="#10B981" stroke="#FFFFFF" stroke-width="0.6"/>
    <!-- 5. Monitoring Activities (Dark Blue/Teal) -->
    <polygon points="6,64 36,78 36,88 6,74" fill="#06B6D4" stroke="#FFFFFF" stroke-width="0.6"/>
  </g>
  
  <!-- Typography on right -->
  <g transform="translate(94, 24)">
    <text x="0" y="28" font-family="'Georgia', 'Times New Roman', serif" font-weight="900" font-size="32" fill="#FFA826" letter-spacing="3">COSO</text>
    <!-- ERM Badge -->
    <rect x="0" y="36" width="130" height="15" rx="3" fill="#EA580C"/>
    <text x="65" y="47" text-anchor="middle" font-family="'Helvetica Neue', Arial, sans-serif" font-weight="800" font-size="7.5" fill="#FFFFFF" letter-spacing="1">INTERNAL CONTROL &amp; ERM</text>
    <!-- Committee Subtitle -->
    <text x="0" y="62" font-family="'Helvetica Neue', Arial, sans-serif" font-weight="600" font-size="6.5" fill="rgba(255,255,255,0.75)" letter-spacing="0.2">Committee of Sponsoring Organizations</text>
    <text x="0" y="70" font-family="'Helvetica Neue', Arial, sans-serif" font-weight="600" font-size="6.5" fill="rgba(255,255,255,0.75)" letter-spacing="0.2">of the Treadway Commission</text>
  </g>
</svg>