<svg xmlns="http://www.w3.org/2000/svg" viewBox="0 0 240 110" width="100%" height="100%">
  <defs>
    <linearGradient id="finraBadgeGrad" x1="0%" y1="0%" x2="100%" y2="100%">
      <stop offset="0%" stop-color="#003B6B"/>
      <stop offset="100%" stop-color="#002244"/>
    </linearGradient>
    <filter id="finraDrop" x="-10%" y="-10%" width="120%" height="120%">
      <feDropShadow dx="0" dy="2" stdDeviation="2" flood-opacity="0.15"/>
    </filter>
  </defs>
  
  <!-- Outer Badge Container -->
  <rect x="2" y="2" width="236" height="106" rx="8" fill="url(#finraBadgeGrad)" filter="url(#finraDrop)" stroke="#0A5B9C" stroke-width="1.2"/>
  
  <!-- Official FINRA Vector Paths (Scaled & Centered) -->
  <g transform="translate(20, 20) scale(1.65)">
    <g fill="#FFFFFF">
      <!-- I -->
      <rect x="21.01" y="0.22" width="4.19" height="23.83"/>
      <!-- A -->
      <path d="M76.43,19.98a2.22,2.22,0,0,1-2.44-2.27c0-1.15.73-2.08,2.45-2.55l8.98-2.47v7.29Zm13.25-13.64c0-3.04-1.93-6.12-6.63-6.12h-8.85c-1.44,0-1.94.59-2.07,1.82-.05.5-.24,2.25-.24,2.25h10.45c2.21,0,3.08,1.04,3.08,2.71v1.39l-8.83,2.4c-4.72,1.3-7,3.35-7,6.94a6.26,6.26,0,0,0,6.58,6.32h13.51Z"/>
      <!-- R -->
      <path d="M58.88,7c0-1.67.86-2.71,3.08-2.71h7.07s-.19-1.75-.24-2.25c-.13-1.22-.63-1.82-2.07-1.82h-5.48c-4.7,0-6.62,3.09-6.62,6.12v17.71h4.26Z"/>
      <!-- N -->
      <path d="M42.45,4.29c2.21,0,3.08,1.04,3.08,2.71v17.05h4.26V6.35c0-3.04-1.93-6.12-6.62-6.12h-13v23.83h4.2V4.29Z"/>
      <!-- F -->
      <path d="M15.27,11.52c-.13-1.23-.63-1.82-2.07-1.82h-8.37v-2.7c0-1.67.86-2.71,3.08-2.71h10.07s-.19-1.75-.24-2.25c-.13-1.22-.63-1.82-2.07-1.82h-8.48c-4.7,0-6.63,3.08-6.63,6.12v17.71h4.26v-10.28h10.68s-.19-1.75-.24-2.25"/>
      <!-- Registered mark -->
      <circle cx="94.2" cy="22.2" r="1.8" fill="none" stroke="#FFFFFF" stroke-width="0.3"/>
      <text x="94.2" y="23.2" text-anchor="middle" font-size="2" font-family="sans-serif" font-weight="700" fill="#FFFFFF">R</text>
    </g>
  </g>
  
  <!-- Subtitle and Badge -->
  <g transform="translate(18, 66)">
    <rect x="0" y="0" width="204" height="17" rx="3" fill="#0077CC"/>
    <text x="102" y="12" text-anchor="middle" font-family="'Helvetica Neue', Arial, sans-serif" font-weight="900" font-size="8.5" fill="#FFFFFF" letter-spacing="1.2">FINANCIAL INDUSTRY REGULATORY AUTHORITY</text>
    <text x="102" y="27" text-anchor="middle" font-family="'Helvetica Neue', Arial, sans-serif" font-weight="600" font-size="6.5" fill="rgba(255,255,255,0.75)" letter-spacing="0.3">Broker-Dealer &amp; Securities Market Oversight</text>
  </g>
</svg>