<svg xmlns="http://www.w3.org/2000/svg" viewBox="0 0 96.1 24.1" width="100%" height="100%">
  <title>FINRA</title>
  <g fill="#00467f">
    <!-- I -->
    <rect x="21.013" y="0.222" width="4.195" height="23.829"/>
    <!-- A -->
    <path d="M76.427,19.984a2.222,2.222,0,0,1-2.441-2.267c0-1.154.726-2.078,2.449-2.55l8.979-2.468v7.285Zm13.248-13.638c0-3.039-1.929-6.123-6.625-6.123h-8.849c-1.438,0-1.938.593-2.069,1.818-.055.502-.24,2.249-.24,2.249h10.445c2.213,0,3.077,1.04,3.077,2.713v1.386l-8.831,2.402c-4.722,1.297-6.997,3.348-6.997,6.937a6.262,6.262,0,0,0,6.576,6.324h13.513Z"/>
    <!-- R -->
    <path d="M58.876,7.003c0-1.673.865-2.714,3.077-2.714h7.075s-.187-1.747-.241-2.249c-.132-1.224-.632-1.818-2.069-1.818h-5.478c-4.696,0-6.624,3.085-6.624,6.124v17.706h4.26Z"/>
    <!-- N -->
    <path d="M42.446,4.289c2.213,0,3.077,1.041,3.077,2.714v17.048h4.261V6.345c0-3.038-1.929-6.123-6.625-6.123h-12.981v23.829h4.196V4.289Z"/>
    <!-- F -->
    <path d="M15.27,11.522c-.131-1.226-.632-1.818-2.069-1.818h-8.373v-2.701c0-1.673.864-2.714,3.076-2.714h10.075s-.187-1.747-.24-2.248c-.133-1.225-.633-1.817-2.07-1.817h-8.476c-4.698,0-6.626,3.083-6.626,6.122v17.706h4.261v-10.283h10.683s-.187-1.746-.241-2.247"/>
    <!-- (R) registered mark -->
    <path d="M94.197,20.274a1.953,1.953,0,0,1,.934.246,1.751,1.751,0,0,1,.71.702,1.906,1.906,0,0,1,.003,1.896,1.75,1.75,0,0,1-.701.703,1.906,1.906,0,0,1-1.891,0,1.768,1.768,0,0,1-.703-.703,1.9,1.9,0,0,1,.003-1.896,1.746,1.746,0,0,1,.713-.702,1.942,1.942,0,0,1,.932-.246m0,.315a1.626,1.626,0,0,0-.779.205,1.486,1.486,0,0,0-.593.586,1.61,1.61,0,0,0-.213.795,1.592,1.592,0,0,0,.21.786,1.49,1.49,0,0,0,.586.587,1.585,1.585,0,0,0,1.577,0,1.48,1.48,0,0,0,.587-.587,1.586,1.586,0,0,0-.004-1.581,1.473,1.473,0,0,0-.593-.586,1.631,1.631,0,0,0-.778-.205m-.832,2.635v-2.043h.701a1.703,1.703,0,0,1,.521.056.496,496,0,0,1,.257.198.517.517,0,0,1,.095.299.543.543,0,0,1-.159.39.635.635,0,0,1-.425.186.514.514,0,0,1,.174.109,2.346,2.346,0,0,1,.303.405l.247.4h-.401l-.182-.322a1.622,1.622,0,0,0-.345-.476.421.421,0,0,0-.263-.07h-.194v.868Zm.329-1.15h.399a.642.642,0,0,0,.393-.087.292.292,0,0,0,.053-.388.281.281,0,0,0-.14-.106,1.003,1.003,0,0,0-.33-.036h-.375Z"/>
  </g>
</svg>