<svg xmlns="http://www.w3.org/2000/svg" viewBox="0 0 110 44" width="100%" height="100%">
  <g transform="translate(6, 6)">
    <circle cx="16" cy="16" r="15" fill="#002D62"/>
    <path d="M9 16 C9 12 13 9 17 9 C20 9 23 11 23 11 L21 14 C21 14 19 12 17 12 C14 12 12 14 12 16 C12 18 14 20 17 20 C19 20 21 18 21 18 L23 21 C23 21 20 23 17 23 C13 23 9 20 9 16 Z" fill="#FFFFFF"/>
  </g>
  <text x="44" y="22" font-family="'Arial Black', sans-serif" font-weight="900" font-size="15" fill="#002D62" letter-spacing="0.5">SOC 2</text>
  <rect x="44" y="27" width="58" height="10" rx="2.5" fill="#059669"/>
  <text x="73" y="34.5" text-anchor="middle" font-family="'Arial', sans-serif" font-weight="900" font-size="6.5" fill="#FFFFFF" letter-spacing="0.6">TYPE II CERTIFIED</text>
</svg>